<?xml version="1.0" encoding="UTF-8"?>
<svg width="373px" height="301px" viewBox="0 0 373 301" version="1.1" xmlns="http://www.w3.org/2000/svg" xmlns:xlink="http://www.w3.org/1999/xlink">
    <!-- Generator: Sketch 64 (93537) - https://sketch.com -->
    <title>Artboard</title>
    <desc>Created with Sketch.</desc>
    <g id="Artboard" stroke="none" stroke-width="1" fill="none" fill-rule="evenodd">
        <g id="logo_hedera" transform="translate(68.000000, 32.000000)" fill="#62DAFB" fill-rule="nonzero">
            <path d="M95.5409833,133.557686 L142.054068,133.557686 L142.054068,154.099549 L150.686409,154.099549 L150.686409,84.8711324 L142.054068,84.8711324 L142.054068,105.418078 L95.5409833,105.418078 L95.5409833,84.8711324 L86.8781751,84.8711324 L86.8781751,154.089385 L95.5409833,154.089385 L95.5409833,133.557686 Z M95.5409833,114.093229 L142.054068,114.093229 L142.054068,124.892699 L95.5409833,124.892699 L95.5409833,114.093229 Z M225.665908,106.622536 L225.488183,106.622536 C223.220766,86.8043869 215.442942,68.0205424 203.039019,52.4066537 L203.171043,52.2846832 C206.302437,49.1737891 207.532461,44.6243856 206.395773,40.3575937 C205.259085,36.0908018 201.929267,32.7581927 197.666048,31.6205522 C193.40283,30.4829117 188.857236,31.713966 185.748947,34.8479853 L185.627079,34.98012 C170.018596,22.5615051 151.241609,14.7753691 131.431211,12.5070573 L131.431211,12.3291837 C131.431211,5.51996355 125.91587,0 119.112352,0 C112.308835,0 106.793494,5.51996355 106.793494,12.3291837 L106.793494,12.5070573 C86.4465581,14.8194145 68.2018513,22.3765027 52.5976254,34.9699558 L52.4757571,34.8429032 C49.3795129,31.6510924 44.8053463,30.3761895 40.5063765,31.5068206 C36.2074067,32.6374517 32.8503928,35.9982588 31.7219618,40.3011613 C30.5935307,44.6040637 31.8686993,49.1816924 35.0587395,52.2796011 L35.1856857,52.4015716 C22.8666493,67.9169132 15.1105155,86.5606112 12.7872996,106.241379 L12.7365211,106.647947 L12.5689521,106.647947 C8.1091423,106.557311 3.94880087,108.886731 1.69234323,112.737878 C-0.56411441,116.589025 -0.56411441,121.360154 1.69234323,125.211301 C3.94880087,129.062448 8.1091423,131.391868 12.5689521,131.301232 L12.7466768,131.301232 C15.0089526,151.127769 22.7890752,169.919958 35.2009193,185.537443 C35.1544613,185.577168 35.1103772,185.619592 35.0688952,185.664496 C31.9346591,188.773723 30.7021439,193.323661 31.8380236,197.591543 C32.9739033,201.859424 36.3045467,205.192859 40.5688544,206.329691 C44.8331621,207.466523 49.3792898,206.232975 52.4859128,203.096112 C52.5307791,203.054595 52.5731676,203.010474 52.612859,202.963977 C68.2209375,215.382426 86.9983694,223.166985 106.808727,225.431957 L106.808727,225.670816 C106.808727,232.480036 112.324068,238 119.127586,238 C125.931103,238 131.446444,232.480036 131.446444,225.670816 L131.446444,225.43704 C151.351607,223.282228 169.58108,215.730221 185.637235,202.963977 L185.764181,203.101194 C190.580336,207.885818 198.355659,207.87141 203.154079,203.068969 C207.952498,198.266528 207.966894,190.484687 203.186276,185.664496 L203.049174,185.532361 C215.459671,169.916023 223.239686,151.125855 225.503417,131.301232 L225.681142,131.301232 C232.484659,131.301232 238,125.781269 238,118.972048 C238,112.162828 232.484659,106.642865 225.681142,106.642865 L225.665908,106.622536 Z M224.294889,106.698768 C221.720517,106.986749 219.303195,108.082571 217.389016,109.829344 L182.93582,75.3726805 L191.161933,55.4508338 C194.969601,56.5058171 199.051801,55.6705514 202.14024,53.204544 C214.384477,68.6176036 222.066741,87.1571144 224.3152,106.719096 L224.294889,106.698768 Z M181.640969,120.01388 L213.387672,120.064701 C213.471852,121.014498 213.667862,121.951014 213.971625,122.854776 L179.015721,137.491234 C180.717006,131.824758 181.607707,125.945654 181.66128,120.029126 L181.640969,120.01388 Z M213.336894,118.870406 L181.66128,118.819585 C181.59697,112.430702 180.5558,106.089322 178.573949,100.015801 L214.118882,114.753902 C213.625776,116.076215 213.366322,117.474316 213.352127,118.885653 L213.336894,118.870406 Z M180.452752,119.470095 C180.460967,144.442183 165.435979,166.959548 142.38567,176.519751 C119.335361,186.079954 92.8005042,180.799691 75.1573581,163.141758 C57.514212,145.483824 52.2383712,118.926726 61.7905678,95.8570972 C71.3427644,72.7874682 93.8412727,57.749887 118.792448,57.7581056 C152.840647,57.7973226 180.431608,85.4136833 180.467986,119.490423 L180.452752,119.470095 Z M175.222569,147.16756 L182.016729,163.542098 L173.465634,172.141018 L164.223951,162.94241 C168.676402,158.281789 172.39061,152.967169 175.237803,147.182806 L175.222569,147.16756 Z M74.0109091,163.61833 L65.6578497,171.95298 L57.7008623,163.872435 L63.5911657,149.642544 C66.404649,154.759237 69.9110554,159.462307 74.0109091,163.61833 L74.0109091,163.61833 Z M55.91346,118.641712 L24.8624214,118.590891 C24.8220526,117.379925 24.6047872,116.181396 24.2175347,115.033418 L58.7773661,100.661229 C56.9571106,106.481951 55.9973931,112.537862 55.9286935,118.63663 L55.91346,118.641712 Z M24.8573435,119.785185 L55.9236157,119.836006 C55.9488231,125.551706 56.7552146,131.237086 58.3203598,136.734001 L24.3394031,122.605753 C24.6214039,121.689006 24.7952332,120.742378 24.8573435,119.785185 L24.8573435,119.785185 Z M63.5657764,89.4246973 L57.711018,75.0118511 L65.9218977,66.7940894 L74.2648015,75.1134932 C70.0398756,79.3544518 66.4360871,84.1726559 63.5606986,89.4246973 L63.5657764,89.4246973 Z M163.888813,75.6725246 L172.739502,66.8449104 L181.539412,75.6521962 L175.029611,91.3762252 C172.139166,85.6013838 168.382003,80.3036979 163.888813,75.6674425 L163.888813,75.6725246 Z M173.587502,66.0165275 L186.586792,53.0469988 C187.620568,53.9094091 188.788767,54.5961513 190.044806,55.0798403 L182.021807,74.4579018 L173.587502,66.0165275 Z M172.739502,65.1678162 L164.396598,56.8179198 L183.367437,48.940659 C183.956142,50.1547869 184.740102,51.263896 185.688013,52.223698 L172.739502,65.1678162 Z M171.896579,66.0114454 L163.050968,74.8390596 C158.568878,70.390172 153.446,66.6385827 147.85297,63.7092524 L163.203304,57.3261301 L171.896579,66.0114454 Z M146.456562,62.9977579 C144.545386,62.0491412 142.586059,61.200971 140.58657,60.456706 L125.099135,23.1134078 C125.925744,22.6535338 126.697452,22.1011214 127.3994,21.4668062 L162.299447,56.3961051 L146.456562,62.9977579 Z M139.073371,59.9484957 C132.939958,57.8585692 126.519641,56.7339007 120.041598,56.6146356 L120.092377,24.6583673 C121.452688,24.5554824 122.786236,24.2256807 124.037864,23.6826034 L139.073371,59.9484957 Z M118.848304,56.5943072 L118.812759,56.5943072 C112.787438,56.5902592 106.793057,57.4563644 101.014903,59.1658517 L115.486769,24.1399927 C116.591864,24.4864487 117.741171,24.6713136 118.899083,24.6888599 L118.848304,56.5943072 Z M99.5524829,59.6435694 C96.8985999,60.4758291 94.303137,61.484324 91.783376,62.662339 L76.4279646,56.3097094 L111.04873,21.6599261 C112.033026,22.51547 113.144973,23.211662 114.344253,23.7232602 L99.5524829,59.6435694 Z M90.4123571,63.4246546 C84.8213435,66.2761295 79.6869228,69.9468915 75.1788141,74.3156029 L66.7749762,65.9657065 L75.5342634,57.1990775 L90.4123571,63.4246546 Z M65.9726762,65.1627341 L52.8058172,52.0509065 C53.7255814,51.0744525 54.4786834,49.9532958 55.0349923,48.7322927 L74.3663584,56.7620166 L65.9726762,65.1627341 Z M65.0891307,65.9657065 L57.2540117,73.8124746 L49.4239706,54.5360552 C50.3253961,54.0720222 51.1662017,53.4984979 51.9273495,52.8284683 L65.0891307,65.9657065 Z M62.8396442,90.8019474 C61.4521285,93.4978843 60.2641086,96.2920711 59.2851508,99.1620081 L23.7909955,113.900109 C23.2968868,112.808947 22.6468946,111.795479 21.8614134,110.891503 L56.7970055,75.9266298 L62.8396442,90.8019474 Z M23.9331753,123.73398 L58.7773661,138.217975 C59.8546469,141.675973 61.232629,145.032837 62.8955005,148.250048 L56.8020833,162.947492 L21.709078,127.255878 C22.6428249,126.215266 23.3947147,125.024635 23.9331753,123.73398 Z M57.2235447,165.066729 L64.8403162,172.791527 L52.1964755,185.395144 C51.4146464,184.657169 50.5407872,184.023432 49.5966174,183.509684 L57.2235447,165.066729 Z M65.6680054,173.655485 L73.5894477,181.700455 L55.0705372,189.460827 C54.5609292,188.297529 53.8759041,187.219424 53.0393982,186.264184 L65.6680054,173.655485 Z M66.5109281,172.811855 L74.8690654,164.477205 C79.1726948,168.687742 84.0542474,172.262561 89.3663205,175.09372 L74.7675084,181.192244 L66.5109281,172.811855 Z M90.7678064,175.789968 C93.335982,177.078367 95.9894657,178.188874 98.7095602,179.113664 L113.211893,214.871346 C112.092273,215.488536 111.074821,216.275408 110.195652,217.204032 L75.6662874,182.137516 L90.7678064,175.789968 Z M100.192292,179.601546 C106.17071,181.453392 112.392078,182.400655 118.650268,182.411949 L118.59949,213.361961 C117.118484,213.422735 115.660979,213.753402 114.298553,214.337725 L100.192292,179.601546 Z M119.843562,182.396703 C126.293655,182.298607 132.68967,181.201425 138.804246,179.144157 L124.230823,214.444449 C122.83292,213.805224 121.327455,213.434576 119.792784,213.351797 L119.843562,182.396703 Z M140.317444,178.615618 C142.913115,177.665979 145.442445,176.54372 147.888515,175.256347 L163.792334,181.863082 L128.348957,217.498794 C127.471382,216.508448 126.443169,215.662892 125.302249,214.993316 L140.317444,178.615618 Z M149.2443,174.524524 C154.437492,171.632034 159.196691,168.020292 163.381028,163.796203 L172.612555,172.979565 L164.680957,180.958468 L149.2443,174.524524 Z M173.47579,173.823194 L185.571223,185.86778 C184.74459,186.730895 184.048347,187.710219 183.504539,188.774743 L165.894563,181.456514 L173.47579,173.823194 Z M174.318712,172.979565 L182.519436,164.73131 L190.024495,182.854092 C188.708691,183.364894 187.490774,184.099007 186.424301,185.024151 L174.318712,172.979565 Z M175.923312,145.754735 C176.934304,143.563757 177.81598,141.315298 178.563793,139.020948 L214.413398,124.003331 C215.094205,125.542739 216.082672,126.926368 217.317926,128.069014 L182.915508,162.657812 L175.923312,145.754735 Z M178.056008,98.4911704 C177.370499,96.559971 176.583432,94.6643463 175.720198,92.8195426 L182.433113,76.5568107 L216.546094,110.688219 C215.744815,111.567204 215.075958,112.55849 214.560655,113.630757 L178.056008,98.4911704 Z M186.586792,35.6916145 C189.39871,32.8773403 193.497168,31.7782411 197.338319,32.808337 C201.17947,33.8384328 204.17975,36.8412277 205.208983,40.6855978 C206.238216,44.5299678 205.140037,48.6318619 202.32812,51.4461361 C202.084383,51.6900771 201.820335,51.9187718 201.566443,52.1373022 L201.424263,52.2541906 C197.002687,55.8113129 190.614134,55.4652226 186.602026,51.4512182 C185.740334,50.5892653 185.028149,49.5896526 184.494719,48.4934338 L184.535342,48.4934338 L184.078335,47.3906173 L184.027557,47.3906173 C182.537141,43.3233204 183.546204,38.7598809 186.612181,35.7017787 L186.586792,35.6916145 Z M184.824779,35.8745703 C182.137589,39.2489774 181.4042,43.7820731 182.890119,47.8327604 L163.482585,55.9031411 L128.232167,20.623177 C129.977564,18.7054469 131.072399,16.284473 131.360121,13.7064338 C150.903757,15.9563197 169.427738,23.6372494 184.834935,35.8796524 L184.824779,35.8745703 Z M119.11743,1.19937531 C123.618224,1.19732101 127.676888,3.90949605 129.400216,8.07077998 C131.123544,12.2320639 130.172011,17.0226104 126.989469,20.2078203 C123.806926,23.3930303 119.020392,24.3453611 114.862593,22.6205884 C110.704794,20.8958158 107.99489,16.8337503 107.996942,12.3291837 C108.005335,6.18584294 112.979234,1.20777477 119.11743,1.19937531 L119.11743,1.19937531 Z M106.879817,13.7013517 C107.175228,16.370823 108.336337,18.869924 110.185496,20.8162969 L75.2295925,55.801499 L55.4259866,47.5786552 C56.7877263,43.5908777 56.0218366,39.1833207 53.3948475,35.8898166 C68.8111931,23.4488266 86.7969296,15.9933805 106.874739,13.7013517 L106.879817,13.7013517 Z M32.6518185,43.5637932 C32.6417639,38.366195 36.2258827,33.8530153 41.287403,32.6897538 C46.3489233,31.5264923 51.5412577,34.022628 53.7977951,38.7039342 C56.0543325,43.3852405 54.7747347,49.0062836 50.7147365,52.2472557 C46.6547383,55.4882278 40.8944783,55.4868875 36.8359862,52.2440264 L36.5973274,52.0509065 C36.3637464,51.8476223 36.1301654,51.6443382 35.9067401,51.4258077 C33.817827,49.3442828 32.6460712,46.5139776 32.6518185,43.5637932 L32.6518185,43.5637932 Z M13.9653603,106.378595 C16.2654973,86.9391022 23.9260559,68.5239223 36.0895426,53.1943798 C39.5405323,55.9504591 44.2009658,56.6483653 48.3068441,55.0239371 L56.3044542,74.7221712 L21.0337242,110.027546 C19.0894639,108.175295 16.5924935,107.011445 13.9247375,106.714014 L13.9653603,106.378595 Z M12.5689521,130.101856 C8.06861945,130.101856 4.01151412,127.388376 2.28978611,123.226929 C0.568058103,119.065482 1.52084522,114.27577 4.70378726,111.091614 C7.88672931,107.907458 12.6728655,106.956059 16.8300409,108.681129 C20.9872164,110.4062 23.6965704,114.467944 23.6945176,118.972048 C23.6861193,125.117371 18.709131,130.096257 12.5689521,130.101856 Z M13.939971,131.219918 C16.5123306,130.933685 18.9280619,129.839557 20.840766,128.094425 L56.3095321,164.136704 L48.5201137,182.991309 C44.3709875,181.265347 39.6122205,181.93517 36.0996983,184.739553 C23.8595882,169.323629 16.1825552,150.782246 13.939971,131.219918 L13.939971,131.219918 Z M52.4706792,201.312293 L52.1660084,201.058188 L51.4043312,201.988213 L51.6734571,202.201661 L51.6379122,202.242318 C48.8259949,205.056593 44.7275359,206.155692 40.8863852,205.125596 C37.0452344,204.0955 34.0449542,201.092705 33.015721,197.248335 C31.9864879,193.403965 33.0846668,189.302071 35.8965844,186.487797 C36.1572472,186.230303 36.4280658,185.986362 36.70904,185.755974 C39.4043856,183.534002 42.9853824,182.706787 46.381082,183.521719 C49.7767817,184.336651 52.5935365,186.699259 53.9889557,189.90297 L53.9077101,189.938545 L54.3647164,191.041361 L54.4154949,191.041361 C54.7537289,192.12544 54.9249552,193.254767 54.9232918,194.390468 C54.9181602,196.907713 54.0547195,199.347812 52.4757571,201.307211 L52.4706792,201.312293 Z M53.4050032,202.059362 C55.9892878,198.823133 56.773609,194.502886 55.4919986,190.563644 L74.4831489,182.605069 L109.408585,218.0934 C108.014849,219.867506 107.136402,221.991612 106.869661,224.232581 C87.3282704,221.985892 68.8067101,214.304508 53.4050032,202.059362 Z M119.112352,236.795541 C114.61202,236.795541 110.554914,234.082062 108.833186,229.920615 C107.111458,225.759168 108.064245,220.969455 111.247187,217.785299 C114.430129,214.601144 119.216266,213.649744 123.373441,215.374815 C127.530616,217.099886 130.23997,221.16163 130.237918,225.665734 C130.232314,231.812217 125.25369,236.79274 119.112352,236.795541 Z M131.349965,224.242745 C131.109243,222.143991 130.330882,220.143065 129.090323,218.433901 L164.970395,182.350964 L182.996754,189.841985 C181.389104,193.943735 182.087712,198.592114 184.829857,202.039034 C168.966661,214.652815 150.996158,222.113344 131.349965,224.247827 L131.349965,224.242745 Z M205.588128,194.380304 C205.60003,199.583754 202.009593,204.101661 196.94115,205.260905 C191.872708,206.420148 186.677883,203.911588 184.430309,199.219469 C182.182736,194.52735 183.481785,188.90294 187.558844,185.674048 C191.635904,182.445155 197.403727,182.472842 201.449652,185.740727 L201.551209,185.827123 C201.815257,186.045654 202.058994,186.284512 202.32812,186.528453 C204.41358,188.608133 205.584957,191.433865 205.58302,194.380304 L205.588128,194.380304 Z M202.135162,184.724307 C199.961119,182.973865 197.252752,182.023079 194.462534,182.030792 C193.346954,182.031415 192.23662,182.183573 191.161933,182.483099 L183.418215,163.801285 L218.221783,128.800837 C219.995196,130.147014 222.101988,130.983409 224.3152,131.219918 C222.062209,150.783166 214.378553,169.32355 202.135162,184.739553 L202.135162,184.724307 Z M225.665908,130.106938 C219.753891,130.122618 214.863082,125.505842 214.533269,119.598064 C214.203457,113.690285 218.549949,108.556955 224.426913,107.913391 L224.426913,107.938801 L225.274914,107.852405 L225.66083,107.852405 C229.691358,107.766211 233.453128,109.868971 235.493664,113.348778 C237.534199,116.828585 237.534199,121.140922 235.493664,124.620729 C233.453128,128.100536 229.691358,130.203296 225.66083,130.117102 L225.665908,130.106938 Z" id="Shape"></path>
        </g>
    </g>
</svg>